HIERARCHY
ROOT Hips
{
	OFFSET 0.000000 0.000000 0.000000 
	CHANNELS 6 Xposition Yposition Zposition Zrotation Yrotation Xrotation
	JOINT LeftUpLeg
	{
		OFFSET 1.363060 -1.794630 0.839290 
		CHANNELS 3 Zrotation Yrotation Xrotation
		JOINT LeftLeg
		{
			OFFSET 2.448110 -6.726130 0.000000 
			CHANNELS 3 Zrotation Yrotation Xrotation
			JOINT LeftFoot
			{
				OFFSET 2.562200 -7.039590 0.000000 
				CHANNELS 3 Zrotation Yrotation Xrotation
				JOINT LeftToeBase
				{
					OFFSET 0.157640 -0.433110 2.322550 
					CHANNELS 3 Zrotation Yrotation Xrotation
					End Site
					{
						OFFSET 0.000000 0.000000 0.000000 
					}
				}
			}
		}
	}
	JOINT RightUpLeg
	{
		OFFSET -1.305520 -1.794630 0.839290 
		CHANNELS 3 Zrotation Yrotation Xrotation
		JOINT RightLeg
		{
			OFFSET -2.542530 -6.985550 0.000000 
			CHANNELS 3 Zrotation Yrotation Xrotation
			JOINT RightFoot
			{
				OFFSET -2.568260 -7.056230 0.000000 
				CHANNELS 3 Zrotation Yrotation Xrotation
				JOINT RightToeBase
				{
					OFFSET -0.164730 -0.452590 2.363150 
					CHANNELS 3 Zrotation Yrotation Xrotation
					End Site
					{
						OFFSET 0.000000 0.000000 0.000000 
					}
				}
			}
		}
	}
	JOINT Spine
	{
		OFFSET 0.028270 2.035590 -0.193380 
		CHANNELS 3 Zrotation Yrotation Xrotation
		JOINT Spine1
		{
			OFFSET 0.056720 2.048850 -0.042750 
			CHANNELS 3 Zrotation Yrotation Xrotation
			JOINT Neck1
			{
				OFFSET -0.054170 1.746240 0.172020 
				CHANNELS 3 Zrotation Yrotation Xrotation
				JOINT Head
				{
					OFFSET 0.104070 1.761360 -0.123970 
					CHANNELS 3 Zrotation Yrotation Xrotation
					End Site
					{
						OFFSET 0.000000 0.000000 0.000000 
					}
				}
			}
			JOINT LeftArm
			{
				OFFSET 3.362410 1.200890 -0.311210 
				CHANNELS 3 Zrotation Yrotation Xrotation
				JOINT LeftForeArm
				{
					OFFSET 4.983000 -0.000000 -0.000000 
					CHANNELS 3 Zrotation Yrotation Xrotation
					JOINT LeftHand
					{
						OFFSET 3.483560 -0.000000 -0.000000 
						CHANNELS 3 Zrotation Yrotation Xrotation
						JOINT LeftHandIndex1
						{
							OFFSET 0.715260 -0.000000 -0.000000 
							CHANNELS 3 Zrotation Yrotation Xrotation
							End Site
							{
								OFFSET 0.000000 0.000000 0.000000 
							}
						}
					}
				}
			}
			JOINT RightArm
			{
				OFFSET -3.136600 1.374050 -0.404650 
				CHANNELS 3 Zrotation Yrotation Xrotation
				JOINT RightForeArm
				{
					OFFSET -5.241900 -0.000000 -0.000000 
					CHANNELS 3 Zrotation Yrotation Xrotation
					JOINT RightHand
					{
						OFFSET -3.444170 -0.000000 -0.000000 
						CHANNELS 3 Zrotation Yrotation Xrotation
						JOINT RightHandIndex1
						{
							OFFSET -0.622530 -0.000000 -0.000000 
							CHANNELS 3 Zrotation Yrotation Xrotation
							End Site
							{
								OFFSET 0.000000 0.000000 0.000000 
							}
						}
					}
				}
			}
		}
	}
}
MOTION
Frames: 18
Frame Time: 0.041667
0.742568 17.932798 9.926653 -4.169667 0.163482 15.850805 -12.922107 -0.140795 -31.769211 0.844372 9.768090 26.416571 -0.488611 4.198709 2.647863 0.098400 -2.022900 -5.569000 18.419086 9.308167 -30.600839 -1.188789 -10.128604 27.306061 -0.142129 -1.046106 0.827884 -0.213700 -2.976100 8.212200 1.369704 1.064481 -0.685617 1.733635 0.073964 5.220471 3.274844 -0.585926 17.241373 -0.405200 0.223500 6.523900 -91.281245 -0.124499 30.110384 8.450577 -19.175719 -1.562477 -0.198691 -0.788084 -23.280962 -7.125000 0.000000 0.000000 95.275435 3.335618 19.137051 -15.565142 29.370528 -4.768410 0.977463 0.895919 25.310701 7.125000 0.000000 0.000000 
0.751127 17.929537 9.974337 -4.168909 0.219507 15.991650 -13.027815 -0.077154 -31.765539 0.840515 9.760478 26.390324 -0.524102 4.337129 2.420262 0.091900 -1.954700 -5.380600 18.418721 9.225488 -30.510147 -1.165953 -10.081644 27.176427 -0.146625 -1.017380 0.578590 -0.209700 -2.948500 8.135400 1.374536 1.071166 -0.680908 1.746800 0.078936 5.261647 3.233024 -0.581956 17.060168 -0.422900 0.215600 6.469200 -91.579990 0.595980 29.869671 8.242200 -18.840128 -1.488731 -0.204625 -0.792520 -22.845739 -7.125000 0.000000 0.000000 95.117517 2.970203 17.804831 -14.489133 27.999916 -4.225428 0.999029 0.903631 26.343735 7.125000 0.000000 0.000000 
0.759482 17.924748 10.020901 -4.170203 0.267499 16.128374 -13.123672 -0.027505 -31.780186 0.844567 9.767039 26.405488 -0.560710 4.479782 2.185029 0.087000 -1.902800 -5.237000 18.428194 9.142478 -30.421813 -1.143814 -10.035132 27.049110 -0.149526 -0.999142 0.318242 -0.203800 -2.907000 8.019900 1.381023 1.087933 -0.679479 1.767900 0.088262 5.290025 3.198770 -0.580745 16.883692 -0.435000 0.206300 6.415100 -91.878605 1.310236 29.652647 8.044532 -18.519725 -1.419575 -0.210235 -0.796855 -22.400805 -7.125000 0.000000 0.000000 94.935763 2.563682 16.411705 -13.523891 26.727145 -3.756489 1.020257 0.908745 27.446034 7.125000 0.000000 0.000000 
0.768040 17.919450 10.066955 -4.177394 0.308990 16.263990 -13.198746 0.002203 -31.802483 0.853851 9.783076 26.448420 -0.595364 4.614040 1.951674 0.084900 -1.879700 -5.173200 18.451957 9.054327 -30.335651 -1.121988 -9.988642 26.922099 -0.151203 -0.989850 0.051870 -0.194400 -2.839200 7.831300 1.388592 1.113440 -0.678711 1.790054 0.101673 5.322219 3.173659 -0.590764 16.716155 -0.441900 0.191800 6.365600 -92.170673 1.996607 29.459123 7.852933 -18.207171 -1.353453 -0.215567 -0.801064 -21.941005 -7.125000 0.000000 0.000000 94.733210 2.119039 14.981981 -12.664686 25.560656 -3.354682 1.040771 0.911663 28.589011 7.125000 0.000000 0.000000 
0.776192 17.913948 10.111276 -4.174975 0.338249 16.402402 -13.260190 -0.001270 -31.829558 0.866165 9.805576 26.509809 -0.626183 4.732464 1.727475 0.084800 -1.877900 -5.168300 18.465364 8.980434 -30.258049 -1.100737 -9.943242 26.797239 -0.150079 -0.998794 -0.213557 -0.183500 -2.759200 7.609000 1.394936 1.148500 -0.678422 1.815950 0.119000 5.355730 3.162733 -0.608672 16.552209 -0.442500 0.174200 6.319200 -92.449713 2.645362 29.298116 7.666188 -17.899992 -1.289832 -0.220516 -0.805132 -21.469506 -7.125000 0.000000 0.000000 94.518521 1.640913 13.543784 -11.909708 24.509461 -3.014151 1.060577 0.912262 29.746124 7.125000 0.000000 0.000000 
0.784343 17.909261 10.154885 -4.167995 0.356184 16.541139 -13.304498 -0.031248 -31.848432 0.879354 9.829966 26.577719 -0.650868 4.825833 1.514484 0.087300 -1.906200 -5.246600 18.474479 8.908009 -30.188442 -1.080526 -9.900084 26.678060 -0.148719 -1.010942 -0.472160 -0.172000 -2.671700 7.366100 1.399434 1.188664 -0.678649 1.836989 0.139176 5.390609 3.169244 -0.632609 16.387505 -0.434800 0.154500 6.272700 -92.714638 3.263621 29.144153 7.487976 -17.604622 -1.230298 -0.224829 -0.808975 -20.971892 -7.125000 0.000000 0.000000 94.295344 1.130877 12.128362 -11.248072 23.569216 -2.725810 1.079434 0.911564 30.895460 7.125000 0.000000 0.000000 
0.791883 17.905186 10.196761 -4.160255 0.358204 16.679775 -13.326470 -0.080115 -31.862636 0.892332 9.854079 26.645493 -0.668498 4.890331 1.320226 0.092100 -1.956800 -5.386200 18.476872 8.868848 -30.124747 -1.062545 -9.861533 26.570018 -0.143986 -1.043882 -0.721402 -0.161600 -2.589700 7.138500 1.401551 1.236569 -0.678883 1.853548 0.163302 5.421545 3.188302 -0.660980 16.216499 -0.423100 0.133500 6.223100 -92.957230 3.842709 29.003019 7.318014 -17.320610 -1.175303 -0.228003 -0.812099 -20.465511 -7.125000 0.000000 0.000000 94.076902 0.605671 10.744616 -10.669066 22.731126 -2.481414 1.097415 0.909259 32.023661 7.125000 0.000000 0.000000 
0.798913 17.902129 10.236906 -4.150312 0.344085 16.811345 -13.334822 -0.133834 -31.866571 0.903920 9.875789 26.708271 -0.678281 4.922469 1.142972 0.098500 -2.023700 -5.571300 18.469748 8.856289 -30.063078 -1.047304 -9.828913 26.477813 -0.138301 -1.083238 -0.952582 -0.153500 -2.524500 6.957700 1.401039 1.286287 -0.679467 1.864444 0.188663 5.442155 3.213665 -0.681539 16.034631 -0.409100 0.116700 6.168900 -93.178621 4.394364 28.861159 7.163133 -17.060417 -1.127100 -0.229279 -0.814907 -19.954215 -7.125000 0.000000 0.000000 93.865613 0.072700 9.414841 -10.164347 21.988911 -2.274669 1.114121 0.906178 33.110023 7.125000 0.000000 0.000000 
0.805128 17.899582 10.275420 -4.145429 0.311110 16.935406 -13.328484 -0.179036 -31.864955 0.914674 9.895389 26.766651 -0.681823 4.929086 0.982803 0.106500 -2.104400 -5.794200 18.461747 8.875729 -30.002272 -1.035416 -9.803399 26.404569 -0.130509 -1.134538 -1.164803 -0.145900 -2.461700 6.783600 1.397796 1.341065 -0.680887 1.864802 0.217509 5.451798 3.236041 -0.691726 15.852714 -0.397200 0.105300 6.115600 -93.377128 4.925660 28.714438 7.025099 -16.827380 -1.085653 -0.229325 -0.817325 -19.444369 -7.125000 0.000000 0.000000 93.670732 -0.461365 8.144367 -9.728201 21.339168 -2.100686 1.129043 0.903452 34.134438 7.125000 0.000000 0.000000 
0.810630 17.897748 10.312100 -4.137551 0.261055 17.052823 -13.322167 -0.207836 -31.863100 0.924366 9.912716 26.819972 -0.679283 4.911170 0.840732 0.115100 -2.187100 -6.023000 18.442775 8.922071 -29.945494 -1.026636 -9.784614 26.349569 -0.122374 -1.187415 -1.351499 -0.140900 -2.419200 6.665700 1.391110 1.397673 -0.680692 1.854178 0.247766 5.462292 3.249454 -0.700075 15.680065 -0.391900 0.095400 6.067400 -93.551349 5.432106 28.571443 6.905659 -16.626259 -1.051366 -0.227149 -0.820016 -18.970577 -7.125000 0.000000 0.000000 93.496168 -0.969235 6.889560 -9.341118 20.754711 -1.950198 1.142550 0.900874 35.120167 7.125000 0.000000 0.000000 
0.815521 17.896423 10.347048 -4.136584 0.195196 17.165360 -13.309759 -0.218868 -31.864130 0.933604 9.928519 26.870068 -0.674807 4.885822 0.716598 0.124200 -2.271700 -6.257100 18.426306 8.988814 -29.895285 -1.020462 -9.772027 26.311149 -0.115345 -1.233387 -1.514552 -0.138400 -2.397300 6.605000 1.382301 1.454929 -0.680219 1.832229 0.279509 5.471474 3.259401 -0.701240 15.512668 -0.387800 0.089100 6.020600 -93.708323 5.920406 28.406850 6.801248 -16.450472 -1.022418 -0.224215 -0.822643 -18.524420 -7.125000 0.000000 0.000000 93.335445 -1.461577 5.714950 -9.005994 20.244544 -1.823040 1.154038 0.899195 36.004977 7.125000 0.000000 0.000000 
0.820004 17.895812 10.381283 -4.141065 0.116533 17.277827 -13.296917 -0.213968 -31.867619 0.941949 9.942039 26.914090 -0.670264 4.861038 0.606323 0.133000 -2.350900 -6.476500 18.414137 9.056767 -29.855904 -1.015996 -9.763473 26.283571 -0.111025 -1.264059 -1.652231 -0.135700 -2.374400 6.541500 1.371339 1.509030 -0.678467 1.795220 0.311072 5.490293 3.252826 -0.695858 15.353752 -0.392000 0.085900 5.976500 -93.849202 6.386385 28.226328 6.708963 -16.295563 -0.997505 -0.220891 -0.825375 -18.126596 -7.125000 0.000000 0.000000 93.184480 -1.931648 4.634922 -8.713278 19.797696 -1.714501 1.163569 0.899117 36.760680 7.125000 0.000000 0.000000 
0.824283 17.895914 10.414295 -4.145694 0.026409 17.393632 -13.288780 -0.200004 -31.878260 0.949354 9.953563 26.952163 -0.667915 4.846453 0.511178 0.141200 -2.422000 -6.673500 18.400476 9.126118 -29.830228 -1.012036 -9.756931 26.260684 -0.109157 -1.280823 -1.761631 -0.133400 -2.354300 6.485900 1.358687 1.559625 -0.675793 1.749844 0.341484 5.516502 3.240225 -0.689054 15.197917 -0.398900 0.083200 5.930300 -93.979860 6.820997 28.026538 6.623356 -16.151289 -0.974555 -0.218302 -0.827954 -17.786537 -7.125000 0.000000 0.000000 93.039781 -2.376332 3.666246 -8.457377 19.406575 -1.621484 1.172129 0.899414 37.374368 7.125000 0.000000 0.000000 
0.828766 17.897442 10.447103 -4.154878 -0.063310 17.509866 -13.283986 -0.180047 -31.884005 0.955068 9.961582 26.979720 -0.668503 4.845167 0.426043 0.149400 -2.491200 -6.865200 18.397057 9.161159 -29.818760 -1.008060 -9.751054 26.240281 -0.113730 -1.261075 -1.842055 -0.131700 -2.339200 6.444100 1.345409 1.598497 -0.672379 1.690804 0.367749 5.553660 3.218893 -0.673340 15.050071 -0.408100 0.084700 5.885700 -94.107937 7.226506 27.790128 6.543274 -16.015165 -0.952584 -0.216791 -0.830746 -17.491961 -7.125000 0.000000 0.000000 92.895576 -2.798999 2.831695 -8.233916 19.067156 -1.541747 1.180088 0.900291 37.846280 7.125000 0.000000 0.000000 
0.833351 17.899887 10.479198 -4.165869 -0.157812 17.628404 -13.283647 -0.156562 -31.889873 0.958689 9.965661 26.994974 -0.673694 4.864216 0.355493 0.157400 -2.556600 -7.046500 18.398178 9.179407 -29.822138 -1.003968 -9.745842 26.221413 -0.122169 -1.219004 -1.895464 -0.130700 -2.330400 6.419700 1.331031 1.629373 -0.668574 1.623110 0.391168 5.595353 3.199007 -0.655641 14.902292 -0.414700 0.087000 5.835500 -94.230336 7.595085 27.534376 6.465867 -15.881741 -0.930854 -0.216440 -0.833449 -17.249331 -7.125000 0.000000 0.000000 92.754587 -3.193100 2.115828 -8.036337 18.768738 -1.472250 1.187575 0.901183 38.208954 7.125000 0.000000 0.000000 
0.838038 17.903148 10.510172 -4.163998 -0.250316 17.745100 -13.300123 -0.141384 -31.890214 0.959440 9.964898 26.995373 -0.683065 4.902006 0.301541 0.165200 -2.618500 -7.218300 18.389477 9.169040 -29.840798 -1.000278 -9.741331 26.205403 -0.134543 -1.153980 -1.920918 -0.130400 -2.327900 6.412900 1.315236 1.645971 -0.668747 1.552084 0.407983 5.619594 3.169935 -0.625519 14.767724 -0.423600 0.095200 5.789900 -94.346871 7.939627 27.274856 6.393069 -15.754497 -0.909264 -0.216443 -0.836730 -17.051047 -7.125000 0.000000 0.000000 92.614729 -3.569139 1.501726 -7.862863 18.507719 -1.412374 1.194822 0.901044 38.512412 7.125000 0.000000 0.000000 
0.842521 17.907427 10.540230 -4.160046 -0.340832 17.859985 -13.321059 -0.132678 -31.885035 0.957850 9.959868 26.982023 -0.697696 4.963081 0.266241 0.173400 -2.682700 -7.396500 18.383291 9.138444 -29.873669 -0.997522 -9.739061 26.196118 -0.149496 -1.073382 -1.922717 -0.130400 -2.327400 6.411300 1.299155 1.654761 -0.671154 1.478301 0.421289 5.637484 3.138996 -0.591207 14.652786 -0.430300 0.105500 5.752000 -94.456366 8.250992 27.024084 6.319965 -15.624234 -0.885967 -0.218145 -0.840373 -16.864764 -7.125000 0.000000 0.000000 92.475825 -3.927592 0.977413 -7.712521 18.284200 -1.361493 1.201768 0.900097 38.791977 7.125000 0.000000 0.000000 
0.846801 17.912318 10.568962 -4.146248 -0.429393 17.969596 -13.352144 -0.133621 -31.871366 0.953587 9.950402 26.954462 -0.716181 5.041327 0.250764 0.181300 -2.742800 -7.563600 18.370348 9.090344 -29.918405 -0.996337 -9.739757 26.195591 -0.165682 -0.984080 -1.901892 -0.130300 -2.326900 6.410000 1.281943 1.657975 -0.674773 1.403014 0.431876 5.649833 3.102243 -0.559077 14.563891 -0.439000 0.115200 5.724900 -94.552889 8.529243 26.798533 6.247738 -15.493611 -0.861721 -0.221053 -0.844209 -16.670339 -7.125000 0.000000 0.000000 92.344716 -4.253526 0.458490 -7.575100 18.079058 -1.315982 1.208739 0.897022 39.133573 7.125000 0.000000 0.000000 
